<svg version="1.2" xmlns="http://www.w3.org/2000/svg" viewBox="0 0 770 770" width="256" height="256">
	<style>
		.s0 { fill: #ffffff } 
		.s1 { fill: #1185fe } 
	</style>
	<path id="Shape 1" fill-rule="evenodd" class="s0" d="m385 769.69c-212.73 0-384.69-171.96-384.69-384.69 0-212.73 171.96-384.69 384.69-384.69 212.73 0 384.69 171.96 384.69 384.69 0 212.73-171.96 384.69-384.69 384.69z"/>
	<path class="s1" d="m214.72 204.03c66.5 49.92 138.02 151.14 164.28 205.46 26.26-54.32 97.78-155.54 164.28-205.46 47.98-36.02 125.72-63.89 125.72 24.79 0 17.72-10.15 148.8-16.11 170.07-20.7 73.99-96.14 92.86-163.25 81.44 117.3 19.96 147.14 86.09 82.7 152.22-122.39 125.59-175.91-31.51-189.63-71.77-2.52-7.38-3.69-10.83-3.71-7.89-0.02-2.94-1.2 0.51-3.71 7.89-13.71 40.26-67.23 197.36-189.63 71.77-64.44-66.13-34.6-132.26 82.7-152.22-67.11 11.42-142.55-7.45-163.25-81.44-5.96-21.28-16.11-152.36-16.11-170.06 0-88.69 77.74-60.82 125.72-24.8z"/>
</svg>