<svg version="1.2" xmlns="http://www.w3.org/2000/svg" viewBox="0 0 1000 997" width="256" height="255">
	<style>
		.s0 { fill: #0866ff } 
		.s1 { fill: #ffffff } 
	</style>
	<g id="Logo">
		<g id="Logo">
			<path id="Initiator" class="s0" d="m1000 500c0-276.14-223.86-500-500-500-276.14 0-500 223.86-500 500 0 234.49 161.43 431.24 379.21 485.28v-332.49h-103.1v-152.79h103.1v-65.84c0-170.18 77.02-249.06 244.1-249.06 31.67 0 86.33 6.21 108.69 12.42v138.51c-11.8-1.24-32.3-1.87-57.76-1.87-81.99 0-113.67 31.06-113.67 111.8v54.04h163.32l-28.05 152.79h-135.27v343.55c247.58-29.9 439.43-240.7 439.43-496.34z"/>
			<path id="F" class="s1" d="m695.84 652.79l28.05-152.79h-163.32v-54.04c0-80.74 31.68-111.8 113.67-111.8 25.46 0 45.96 0.63 57.76 1.87v-138.51c-22.36-6.21-77.02-12.42-108.69-12.42-167.08 0-244.1 78.88-244.1 249.06v65.84h-103.1v152.79h103.1v332.49c38.69 9.59 79.14 14.72 120.79 14.72 20.51 0 40.72-1.26 60.57-3.66v-343.55z"/>
		</g>
	</g>
</svg>