<svg version="1.2" xmlns="http://www.w3.org/2000/svg" viewBox="0 0 1970 1970" width="256" height="256">
	<style>
		.s0 { fill: #000000 } 
		.s1 { fill: #ffffff } 
	</style>
	<path id="Shape 1" fill-rule="evenodd" class="s0" d="m985 1970c-544.71 0-985-440.3-985-985 0-544.71 440.29-985 985-985 544.7 0 985 440.29 985 985 0 544.7-440.3 985-985 985z"/>
	<path class="s1" d="m1099.16 913.28l446.73-519.28h-105.86l-387.89 450.89-309.81-450.89h-357.33l468.49 681.82-468.49 544.55h105.87l409.62-476.15 327.18 476.15h357.33l-485.86-707.09zm-145 168.55l-47.47-67.9-377.69-540.24h162.61l304.8 436 47.46 67.89 396.2 566.72h-162.6l-323.31-462.45z"/>
</svg>